# xmcd CD database file
# Copyright (C) 1995-1998 Ti Kan
#
# Track frame offsets:
#       150
#       4123
#       32923
#       63885
#       65625
#       84563
#       109128
#       149475
#       150793
#       181775
#       209585
#       234525
#       235870
#       272660
#
# Disc length: 4088 seconds
#
# Revision: 6
# Processed by: cddbd v1.4PL0 Copyright (c) Steve Scherf et al.
# Submitted via: CDex 1.30Release
#
DISCID=ba0ff60e
DTITLE=Bossa Très... Jazz - When Japan Meets Europe [CD 1)
DYEAR=1900
DGENRE=Blues
TTITLE0=Intro
TTITLE1=People From The Sun And The Earth
TTITLE2=Aracaju
TTITLE3=Interlude
TTITLE4=Vai Minha Tristeza
TTITLE5=Nacer Do Sol
TTITLE6=Black Shrine
TTITLE7=Interlude
TTITLE8=Outro Lugar
TTITLE9=Easy In
TTITLE10=Illusion
TTITLE11=Interlude
TTITLE12=Ms Loneliness
TTITLE13=Candomble
EXTD=
EXTT0=
EXTT1=
EXTT2=
EXTT3=
EXTT4=
EXTT5=
EXTT6=
EXTT7=
EXTT8=
EXTT9=
EXTT10=
EXTT11=
EXTT12=
EXTT13=
PLAYORDER=
